<svg width="21" height="20" viewBox="0 0 21 20" fill="none" xmlns="http://www.w3.org/2000/svg">
<g clip-path="url(#clip0_98_247)">
<g clip-path="url(#clip1_98_247)">
<path d="M4.17139 3.3335C3.13586 3.3335 2.29639 4.17297 2.29639 5.2085V7.29184C2.29639 8.32737 3.13586 9.16684 4.17139 9.16684H6.25473C7.29026 9.16684 8.12973 8.32737 8.12973 7.29184V5.2085C8.12973 4.17297 7.29026 3.3335 6.25473 3.3335H4.17139ZM3.54639 5.2085C3.54639 4.86333 3.82622 4.5835 4.17139 4.5835H6.25473C6.59991 4.5835 6.87973 4.86333 6.87973 5.2085V7.29184C6.87973 7.63701 6.59991 7.91684 6.25473 7.91684H4.17139C3.82622 7.91684 3.54639 7.63701 3.54639 7.29184V5.2085ZM10.0047 4.16684C9.65955 4.16684 9.37973 4.44666 9.37973 4.79184C9.37973 5.13701 9.65955 5.41684 10.0047 5.41684H18.3381C18.6832 5.41684 18.9631 5.13701 18.9631 4.79184C18.9631 4.44666 18.6832 4.16684 18.3381 4.16684H10.0047ZM10.0047 6.66684C9.65955 6.66684 9.37973 6.94666 9.37973 7.29184C9.37973 7.63701 9.65955 7.91684 10.0047 7.91684H15.8381C16.1832 7.91684 16.4631 7.63701 16.4631 7.29184C16.4631 6.94666 16.1832 6.66684 15.8381 6.66684H10.0047ZM4.17139 10.8335C3.13586 10.8335 2.29639 11.673 2.29639 12.7085V14.7919C2.29639 15.8274 3.13586 16.6669 4.17139 16.6669H6.25473C7.29026 16.6669 8.12973 15.8274 8.12973 14.7919V12.7085C8.12973 11.673 7.29026 10.8335 6.25473 10.8335H4.17139ZM3.54639 12.7085C3.54639 12.3634 3.82622 12.0835 4.17139 12.0835H6.25473C6.59991 12.0835 6.87973 12.3634 6.87973 12.7085V14.7919C6.87973 15.1371 6.59991 15.4169 6.25473 15.4169H4.17139C3.82622 15.4169 3.54639 15.1371 3.54639 14.7919V12.7085ZM10.0047 11.6669C9.65955 11.6669 9.37973 11.9467 9.37973 12.2919C9.37973 12.6371 9.65955 12.9169 10.0047 12.9169H18.3381C18.6832 12.9169 18.9631 12.6371 18.9631 12.2919C18.9631 11.9467 18.6832 11.6669 18.3381 11.6669H10.0047ZM10.0047 14.1669C9.65955 14.1669 9.37973 14.4467 9.37973 14.7919C9.37973 15.1371 9.65955 15.4169 10.0047 15.4169H15.8381C16.1832 15.4169 16.4631 15.1371 16.4631 14.7919C16.4631 14.4467 16.1832 14.1669 15.8381 14.1669H10.0047Z" fill="#475467"/>
</g>
</g>
<defs>
<clipPath id="clip0_98_247">
<rect width="20" height="20" fill="white" transform="translate(0.629883)"/>
</clipPath>
<clipPath id="clip1_98_247">
<rect width="20" height="20" fill="white" transform="translate(0.629883)"/>
</clipPath>
</defs>
</svg>
