<svg width="21" height="20" viewBox="0 0 21 20" fill="none" xmlns="http://www.w3.org/2000/svg">
<path d="M13.1299 3.75V16.25H4.69238C3.82943 16.25 3.12988 15.5504 3.12988 14.6875V5.3125C3.12988 4.44955 3.82943 3.75 4.69238 3.75H13.1299ZM14.3799 3.75H16.5674C17.4303 3.75 18.1299 4.44956 18.1299 5.3125V14.6875C18.1299 15.5504 17.4303 16.25 16.5674 16.25H14.3799V3.75ZM19.3799 5.3125C19.3799 3.7592 18.1207 2.5 16.5674 2.5H4.69238C3.13908 2.5 1.87988 3.7592 1.87988 5.3125V14.6875C1.87988 16.2408 3.13908 17.5 4.69238 17.5H16.5674C18.1207 17.5 19.3799 16.2408 19.3799 14.6875V5.3125Z" fill="#344054"/>
</svg>
