<svg width="24" height="25" viewBox="0 0 24 25" fill="none" xmlns="http://www.w3.org/2000/svg">
<g clip-path="url(#clip0_148_179)">
<path d="M21.2398 2.57009C21.5598 2.57009 21.8198 2.67009 22.0198 2.87009C22.2198 3.07009 22.3398 3.35009 22.3798 3.71009V21.9501C22.3798 22.2701 22.2598 22.5501 22.0198 22.7901C21.7798 23.0301 21.5198 23.1301 21.2398 23.0901H16.0198V15.1701H18.6598L19.0798 12.0501H16.0198V10.0701C16.0198 9.55009 16.1198 9.1701 16.3198 8.9301C16.5198 8.6901 16.9198 8.57009 17.5198 8.57009H19.1398V5.75009C18.5798 5.67009 17.7998 5.63009 16.7998 5.63009C15.5598 5.63009 14.5798 5.99009 13.8598 6.71009C13.1398 7.43009 12.7798 8.45009 12.7798 9.77009V12.0501H10.0798V15.1701H12.7798V23.0901H2.9398C2.6198 23.0901 2.3598 22.9901 2.1598 22.7901C1.9598 22.5901 1.8398 22.3101 1.7998 21.9501V3.71009C1.7998 3.39009 1.9198 3.11009 2.1598 2.87009C2.3998 2.63009 2.6598 2.53009 2.9398 2.57009H21.2398Z" fill="#888888"/>
</g>
<defs>
<clipPath id="clip0_148_179">
<rect y="0.830078" width="24" height="24" rx="2" fill="white"/>
</clipPath>
</defs>
</svg>
