<svg width="17" height="16" viewBox="0 0 17 16" fill="none" xmlns="http://www.w3.org/2000/svg">
<path d="M16.3632 2.60355V6.35355C16.3632 6.51931 16.2974 6.67828 16.1801 6.79549C16.0629 6.9127 15.904 6.97855 15.7382 6.97855H11.9882C11.8645 6.97864 11.7436 6.94204 11.6407 6.87337C11.5378 6.8047 11.4577 6.70705 11.4103 6.59279C11.363 6.47853 11.3506 6.35278 11.3748 6.23148C11.3989 6.11018 11.4585 5.99877 11.546 5.91136L12.8741 4.58323L12.0499 3.82933L12.0304 3.81058C11.1617 2.94221 10.0564 2.34906 8.85254 2.10522C7.6487 1.86139 6.3997 1.97767 5.26156 2.43956C4.12342 2.90145 3.14661 3.68845 2.45316 4.70227C1.7597 5.71608 1.38034 6.91175 1.36247 8.13991C1.34461 9.36807 1.68902 10.5743 2.35268 11.6078C3.01635 12.6414 3.96985 13.4565 5.09407 13.9513C6.21829 14.4461 7.46338 14.5987 8.67381 14.3899C9.88424 14.1812 11.0063 13.6205 11.8999 12.7778C11.9596 12.7213 12.0298 12.6772 12.1065 12.6479C12.1832 12.6186 12.2649 12.6047 12.347 12.607C12.4291 12.6093 12.5099 12.6277 12.5849 12.6612C12.6599 12.6948 12.7275 12.7427 12.7839 12.8024C12.8403 12.862 12.8845 12.9322 12.9138 13.0089C12.9431 13.0856 12.957 13.1674 12.9547 13.2495C12.9524 13.3315 12.934 13.4124 12.9004 13.4873C12.8669 13.5623 12.819 13.6299 12.7593 13.6864C11.3696 15.0023 9.52709 15.7335 7.61321 15.7285H7.51008C6.28175 15.7117 5.07636 15.3934 3.99985 14.8017C2.92333 14.2099 2.00866 13.3627 1.33622 12.3347C0.66378 11.3066 0.25416 10.1291 0.143363 8.9057C0.0325653 7.68226 0.223983 6.45033 0.700791 5.3182C1.1776 4.18606 1.9252 3.18838 2.87789 2.41284C3.83057 1.63729 4.95917 1.10764 6.1645 0.870415C7.36982 0.633194 8.61496 0.695674 9.79048 1.05236C10.966 1.40905 12.0359 2.04903 12.9062 2.91605L13.7601 3.69729L15.296 2.15823C15.3836 2.07053 15.4953 2.01086 15.6169 1.9868C15.7385 1.96275 15.8645 1.97539 15.9789 2.02312C16.0933 2.07085 16.1909 2.15152 16.2593 2.25488C16.3278 2.35823 16.3639 2.47959 16.3632 2.60355Z" fill="#344054"/>
</svg>
