<svg width="20" height="20" viewBox="0 0 20 20" fill="none" xmlns="http://www.w3.org/2000/svg"><path d="M14.5 7C15.163 7 15.7989 6.73661 16.2678 6.26777C16.7366 5.79893 17 5.16304 17 4.5C17 3.83696 16.7366 3.20107 16.2678 2.73223C15.7989 2.26339 15.163 2 14.5 2C13.837 2 13.2011 2.26339 12.7322 2.73223C12.2634 3.20107 12 3.83696 12 4.5C12 5.16304 12.2634 5.79893 12.7322 6.26777C13.2011 6.73661 13.837 7 14.5 7ZM11.337 3H4.5C3.88485 2.9999 3.29127 3.22661 2.83279 3.63674C2.37432 4.04687 2.08316 4.61164 2.015 5.223L9 8.92L12.264 7.193C11.8681 6.86484 11.5495 6.45331 11.331 5.98779C11.1125 5.52227 10.9995 5.01425 11 4.5C11 3.963 11.12 3.455 11.337 3ZM13.309 7.792L9.254 9.931C9.17716 9.9762 9.08964 10 9.0005 10C8.91136 10 8.82384 9.9762 8.747 9.931L2 6.373V12.5C2 13.163 2.26339 13.7989 2.73223 14.2678C3.20107 14.7366 3.83696 15 4.5 15H13.5C14.163 15 14.7989 14.7366 15.2678 14.2678C15.7366 13.7989 16 13.163 16 12.5V7.663C15.5313 7.88553 15.0188 8.00066 14.5 8C14.0942 8.00078 13.6915 7.93038 13.31 7.792H13.309ZM6.5 17C6.11183 17.0003 5.72894 16.9101 5.38175 16.7365C5.03457 16.5629 4.73265 16.3107 4.5 16H13.5C14.4283 16 15.3185 15.6313 15.9749 14.9749C16.6313 14.3185 17 13.4283 17 12.5V7.5C17.607 7.956 18 8.682 18 9.5V12.5C18 13.6935 17.5259 14.8381 16.682 15.682C15.8381 16.5259 14.6935 17 13.5 17H6.5Z" fill="#475467"></path></svg>