<svg width="17" height="15" viewBox="0 0 17 15" fill="none" xmlns="http://www.w3.org/2000/svg">
<path d="M13.1299 5C13.7929 5 14.4288 4.73661 14.8977 4.26777C15.3665 3.79893 15.6299 3.16304 15.6299 2.5C15.6299 1.83696 15.3665 1.20107 14.8977 0.73223C14.4288 0.26339 13.7929 0 13.1299 0C12.4669 0 11.831 0.26339 11.3621 0.73223C10.8933 1.20107 10.6299 1.83696 10.6299 2.5C10.6299 3.16304 10.8933 3.79893 11.3621 4.26777C11.831 4.73661 12.4669 5 13.1299 5ZM9.96688 1H3.12988C2.51473 0.9999 1.92115 1.22661 1.46267 1.63674C1.0042 2.04687 0.713043 2.61164 0.644883 3.223L7.62988 6.92L10.8939 5.193C10.498 4.86484 10.1794 4.45331 9.96088 3.98779C9.74238 3.52227 9.62938 3.01425 9.62988 2.5C9.62988 1.963 9.74988 1.455 9.96688 1ZM11.9389 5.792L7.88388 7.931C7.80704 7.9762 7.71952 8 7.63038 8C7.54124 8 7.45372 7.9762 7.37688 7.931L0.629883 4.373V10.5C0.629883 11.163 0.893273 11.7989 1.36211 12.2678C1.83095 12.7366 2.46684 13 3.12988 13H12.1299C12.7929 13 13.4288 12.7366 13.8977 12.2678C14.3665 11.7989 14.6299 11.163 14.6299 10.5V5.663C14.1612 5.88553 13.6487 6.00066 13.1299 6C12.7241 6.00078 12.3214 5.93038 11.9399 5.792H11.9389ZM5.12988 15C4.74171 15.0003 4.35882 14.9101 4.01163 14.7365C3.66445 14.5629 3.36253 14.3107 3.12988 14H12.1299C13.0582 14 13.9484 13.6313 14.6048 12.9749C15.2612 12.3185 15.6299 11.4283 15.6299 10.5V5.5C16.2369 5.956 16.6299 6.682 16.6299 7.5V10.5C16.6299 11.6935 16.1558 12.8381 15.3119 13.682C14.468 14.5259 13.3234 15 12.1299 15H5.12988Z" fill="#475467"/>
</svg>
