<svg width="21" height="20" viewBox="0 0 21 20" fill="none" xmlns="http://www.w3.org/2000/svg">
<path d="M9.90503 6.25C9.90503 6.86807 9.72175 7.47225 9.37837 7.98616C9.03499 8.50006 8.54694 8.9006 7.97592 9.13713C7.4049 9.37365 6.77656 9.43553 6.17037 9.31496C5.56418 9.19438 5.00736 8.89675 4.57032 8.45971C4.13328 8.02267 3.83566 7.46585 3.71508 6.85966C3.5945 6.25347 3.65638 5.62513 3.89291 5.05412C4.12943 4.4831 4.52997 3.99504 5.04387 3.65166C5.55778 3.30828 6.16196 3.125 6.78003 3.125C7.60883 3.125 8.40369 3.45424 8.98974 4.04029C9.57579 4.62634 9.90503 5.4212 9.90503 6.25ZM14.28 9.375C14.8981 9.375 15.5023 9.19172 16.0162 8.84834C16.5301 8.50496 16.9306 8.01691 17.1672 7.44589C17.4037 6.87487 17.4656 6.24654 17.345 5.64034C17.2244 5.03415 16.9268 4.47733 16.4897 4.04029C16.0527 3.60325 15.4959 3.30563 14.8897 3.18505C14.2835 3.06447 13.6552 3.12635 13.0841 3.36288C12.5131 3.5994 12.0251 3.99994 11.6817 4.51384C11.3383 5.02775 11.155 5.63193 11.155 6.25C11.155 7.0788 11.4843 7.87366 12.0703 8.45971C12.6564 9.04576 13.4512 9.375 14.28 9.375ZM6.78003 10.625C6.16196 10.625 5.55778 10.8083 5.04387 11.1517C4.52997 11.495 4.12943 11.9831 3.89291 12.5541C3.65638 13.1251 3.5945 13.7535 3.71508 14.3597C3.83566 14.9658 4.13328 15.5227 4.57032 15.9597C5.00736 16.3967 5.56418 16.6944 6.17037 16.815C6.77656 16.9355 7.4049 16.8736 7.97592 16.6371C8.54694 16.4006 9.03499 16.0001 9.37837 15.4862C9.72175 14.9723 9.90503 14.3681 9.90503 13.75C9.90503 12.9212 9.57579 12.1263 8.98974 11.5403C8.40369 10.9542 7.60883 10.625 6.78003 10.625ZM16.78 13.125H14.905V11.25C14.905 11.0842 14.8392 10.9253 14.722 10.8081C14.6048 10.6908 14.4458 10.625 14.28 10.625C14.1143 10.625 13.9553 10.6908 13.8381 10.8081C13.7209 10.9253 13.655 11.0842 13.655 11.25V13.125H11.78C11.6143 13.125 11.4553 13.1908 11.3381 13.3081C11.2209 13.4253 11.155 13.5842 11.155 13.75C11.155 13.9158 11.2209 14.0747 11.3381 14.1919C11.4553 14.3092 11.6143 14.375 11.78 14.375H13.655V16.25C13.655 16.4158 13.7209 16.5747 13.8381 16.6919C13.9553 16.8092 14.1143 16.875 14.28 16.875C14.4458 16.875 14.6048 16.8092 14.722 16.6919C14.8392 16.5747 14.905 16.4158 14.905 16.25V14.375H16.78C16.9458 14.375 17.1048 14.3092 17.222 14.1919C17.3392 14.0747 17.405 13.9158 17.405 13.75C17.405 13.5842 17.3392 13.4253 17.222 13.3081C17.1048 13.1908 16.9458 13.125 16.78 13.125Z" fill="#344054"/>
</svg>
