<svg width="20" height="17" viewBox="0 0 20 17" fill="none" xmlns="http://www.w3.org/2000/svg">
<path d="M20 5.9001V14.8001C20 15.2668 19.8334 15.6834 19.5 16.0501C19.1667 16.4168 18.7334 16.5834 18.2 16.5501H1.80002C1.30002 16.5501 0.866683 16.3834 0.500016 16.0501C0.13335 15.7168 0 15.3001 0 14.8001V5.9001C0.33335 6.26676 0.716683 6.6001 1.15002 6.9001C3.81668 8.73343 5.65002 10.0168 6.65002 10.7501C7.08335 11.0501 7.43335 11.3001 7.70002 11.5001C7.96668 11.7001 8.31668 11.8668 8.75002 12.0001C9.18335 12.1334 9.60002 12.2334 10 12.3001C10.4 12.3001 10.8167 12.2001 11.25 12.0001C11.6833 11.8001 12.0333 11.6334 12.3 11.5001C12.5667 11.3668 12.9167 11.1168 13.35 10.7501C14.5834 9.81676 16.4333 8.53343 18.9 6.9001C19.3 6.6001 19.6667 6.28343 20 5.9501V5.9001ZM20 2.6501C20 3.21676 19.8167 3.78343 19.45 4.3501C19.0834 4.91676 18.6334 5.36676 18.1 5.7001C15.3 7.63343 13.55 8.8501 12.85 9.3501C12.7833 9.38343 12.6333 9.48343 12.4 9.6501C12.1667 9.81676 11.9667 9.96676 11.8 10.1001C11.6333 10.2334 11.4333 10.3501 11.2 10.4501C10.9667 10.5501 10.75 10.6501 10.55 10.7501C10.35 10.8501 10.1667 10.8834 10 10.8501C9.83335 10.8501 9.65002 10.8168 9.45002 10.7501C9.25002 10.6834 9.03335 10.5834 8.80002 10.4501C8.56668 10.3168 8.36668 10.2001 8.20002 10.1001C8.03335 10.0001 7.83335 9.8501 7.60002 9.6501C7.36668 9.4501 7.21668 9.3501 7.15002 9.3501C6.45002 8.8501 5.46668 8.16676 4.20002 7.3001C2.93335 6.43343 2.16668 5.9001 1.90002 5.7001C1.46668 5.4001 1.03335 4.96676 0.600016 4.4001C0.166683 3.83343 0 3.33343 0 2.9001C0 2.3001 0.150016 1.81676 0.450016 1.4501C0.750016 1.08343 1.20002 0.883431 1.80002 0.850098H18.2C18.7 0.850098 19.1167 1.03343 19.45 1.4001C19.7834 1.76676 19.9667 2.18343 20 2.6501Z" fill="#F2F4F7"/>
</svg>
