<svg width="24" height="24" viewBox="0 0 24 24" fill="none" xmlns="http://www.w3.org/2000/svg">
<path d="M13.7194 9.21918L15.4397 7.49981L13.7194 5.78044C13.5787 5.6397 13.4996 5.44883 13.4996 5.24981C13.4996 5.05079 13.5787 4.85992 13.7194 4.71919C13.8601 4.57845 14.051 4.49939 14.25 4.49939C14.449 4.49939 14.6399 4.57845 14.7806 4.71919L16.5 6.4395L18.2194 4.71919C18.3601 4.57845 18.551 4.49939 18.75 4.49939C18.949 4.49939 19.1399 4.57845 19.2806 4.71919C19.4214 4.85992 19.5004 5.05079 19.5004 5.24981C19.5004 5.44883 19.4214 5.6397 19.2806 5.78044L17.5613 7.49981L19.2806 9.21918C19.3503 9.28887 19.4056 9.37159 19.4433 9.46264C19.481 9.55368 19.5004 9.65126 19.5004 9.74981C19.5004 9.84836 19.481 9.94594 19.4433 10.037C19.4056 10.128 19.3503 10.2108 19.2806 10.2804C19.211 10.3501 19.1282 10.4054 19.0372 10.4431C18.9461 10.4808 18.8486 10.5002 18.75 10.5002C18.6515 10.5002 18.5539 10.4808 18.4628 10.4431C18.3718 10.4054 18.2891 10.3501 18.2194 10.2804L16.5 8.56012L14.7806 10.2804C14.6399 10.4212 14.449 10.5002 14.25 10.5002C14.051 10.5002 13.8601 10.4212 13.7194 10.2804C13.5787 10.1397 13.4996 9.94883 13.4996 9.74981C13.4996 9.55079 13.5787 9.35992 13.7194 9.21918ZM20.0944 15.6054L15.6778 13.6264L15.6656 13.6207C15.4364 13.5227 15.1862 13.4833 14.9379 13.5062C14.6896 13.5292 14.4509 13.6136 14.2434 13.752C14.219 13.7681 14.1955 13.7857 14.1731 13.8045L11.8941 15.7498C10.4484 15.0476 8.95595 13.5664 8.25376 12.1395L10.2019 9.82294C10.2206 9.7995 10.2384 9.77606 10.2553 9.75075C10.3907 9.54384 10.4729 9.30667 10.4945 9.06035C10.5161 8.81402 10.4764 8.56618 10.3791 8.33887V8.32762L8.39438 3.90356C8.2657 3.60662 8.04444 3.35926 7.76362 3.19841C7.4828 3.03756 7.1575 2.97184 6.83626 3.01106C5.56592 3.17822 4.39986 3.80209 3.55588 4.76615C2.7119 5.73021 2.24771 6.96852 2.25001 8.24981C2.25001 15.6936 8.30626 21.7498 15.75 21.7498C17.0313 21.7521 18.2696 21.2879 19.2337 20.4439C20.1977 19.6 20.8216 18.4339 20.9888 17.1636C21.0281 16.8424 20.9625 16.5172 20.8018 16.2364C20.6411 15.9556 20.394 15.7343 20.0972 15.6054H20.0944Z" fill="#F2F4F7"/>
</svg>
