<svg width="15" height="17" viewBox="0 0 15 17" fill="none" xmlns="http://www.w3.org/2000/svg">
<path d="M7.5 16.25C8.47 16.25 9.25 15.47 9.25 14.5H5.75C5.75 15.47 6.53 16.25 7.5 16.25ZM12.75 11.75V7.375C12.75 4.715 11.3275 2.4725 8.875 1.9075V1.3425C8.875 0.6025 8.24 0 7.5 0C6.76 0 6.125 0.6025 6.125 1.3425V1.9075C3.68 2.4725 2.25 4.7075 2.25 7.375V11.75L0.5 13.5V14.375H14.5V13.5L12.75 11.75ZM11 12.625H4V7.375C4 5.2325 5.3425 3.5 7.5 3.5C9.6575 3.5 11 5.2325 11 7.375V12.625Z" fill="#F2F4F7"/>
</svg>
