<svg width="17" height="17" viewBox="0 0 17 17" fill="none" xmlns="http://www.w3.org/2000/svg">
<path d="M8.73829 0.228516C7.13131 0.228516 5.56043 0.705039 4.22428 1.59783C2.88813 2.49061 1.84673 3.75956 1.23176 5.24421C0.616802 6.72886 0.4559 8.36253 0.769405 9.93863C1.08291 11.5147 1.85674 12.9625 2.99304 14.0988C4.12934 15.2351 5.57708 16.0089 7.15318 16.3224C8.72927 16.6359 10.3629 16.475 11.8476 15.86C13.3322 15.2451 14.6012 14.2037 15.494 12.8675C16.3868 11.5314 16.8633 9.96049 16.8633 8.35352C16.8606 6.19946 16.0037 4.13439 14.4806 2.61124C12.9574 1.08809 10.8923 0.231203 8.73829 0.228516ZM11.8633 8.97852H9.36329V11.4785C9.36329 11.6443 9.29744 11.8032 9.18023 11.9205C9.06302 12.0377 8.90405 12.1035 8.73829 12.1035C8.57252 12.1035 8.41355 12.0377 8.29634 11.9205C8.17913 11.8032 8.11329 11.6443 8.11329 11.4785V8.97852H5.61329C5.44752 8.97852 5.28855 8.91267 5.17134 8.79546C5.05413 8.67825 4.98829 8.51928 4.98829 8.35352C4.98829 8.18776 5.05413 8.02878 5.17134 7.91157C5.28855 7.79436 5.44752 7.72852 5.61329 7.72852H8.11329V5.22852C8.11329 5.06276 8.17913 4.90378 8.29634 4.78657C8.41355 4.66936 8.57252 4.60352 8.73829 4.60352C8.90405 4.60352 9.06302 4.66936 9.18023 4.78657C9.29744 4.90378 9.36329 5.06276 9.36329 5.22852V7.72852H11.8633C12.029 7.72852 12.188 7.79436 12.3052 7.91157C12.4224 8.02878 12.4883 8.18776 12.4883 8.35352C12.4883 8.51928 12.4224 8.67825 12.3052 8.79546C12.188 8.91267 12.029 8.97852 11.8633 8.97852Z" fill="#344054"/>
</svg>
