<svg width="16" height="16" viewBox="0 0 16 16" fill="none" xmlns="http://www.w3.org/2000/svg">
<path d="M14.4999 12.9999C14.4999 13.1325 14.4472 13.2597 14.3535 13.3535C14.2597 13.4472 14.1325 13.4999 13.9999 13.4999C13.8673 13.4999 13.7401 13.4472 13.6464 13.3535C13.5526 13.2597 13.4999 13.1325 13.4999 12.9999C13.4983 11.5417 12.9183 10.1437 11.8872 9.11265C10.8561 8.08155 9.45809 7.50156 7.99991 7.49991H5.49991V9.99991C5.49998 10.0989 5.4707 10.1956 5.41577 10.2779C5.36083 10.3602 5.28271 10.4243 5.1913 10.4622C5.09989 10.5001 4.99929 10.51 4.90225 10.4907C4.80521 10.4713 4.71608 10.4237 4.64615 10.3537L1.64615 7.35366C1.59967 7.30722 1.56279 7.25207 1.53763 7.19138C1.51246 7.13068 1.49951 7.06561 1.49951 6.99991C1.49951 6.9342 1.51246 6.86913 1.53763 6.80844C1.56279 6.74774 1.59967 6.69259 1.64615 6.64616L4.64615 3.64616C4.71608 3.57615 4.80521 3.52847 4.90225 3.50914C4.99929 3.48982 5.09989 3.49972 5.1913 3.53759C5.28271 3.57547 5.36083 3.63962 5.41577 3.72191C5.4707 3.80421 5.49998 3.90096 5.49991 3.99991V6.49991H7.99991C9.72325 6.50173 11.3755 7.18713 12.5941 8.40572C13.8127 9.62431 14.4981 11.2766 14.4999 12.9999Z" fill="#98A2B3"/>
</svg>
