<svg width="18" height="18" viewBox="0 0 18 18" fill="none" xmlns="http://www.w3.org/2000/svg">
<path d="M16.9421 16.0578L13.0304 12.1469C14.1642 10.7857 14.7295 9.03983 14.6089 7.27244C14.4882 5.50506 13.6908 3.85223 12.3825 2.65779C11.0743 1.46334 9.35591 0.819256 7.58486 0.859506C5.81382 0.899756 4.12647 1.62125 2.87383 2.87389C1.62118 4.12653 0.899695 5.81388 0.859445 7.58492C0.819195 9.35597 1.46328 11.0744 2.65772 12.3826C3.85217 13.6909 5.50499 14.4883 7.27238 14.6089C9.03977 14.7296 10.7856 14.1642 12.1468 13.0305L16.0577 16.9422C16.1158 17.0003 16.1848 17.0463 16.2606 17.0777C16.3365 17.1092 16.4178 17.1253 16.4999 17.1253C16.5821 17.1253 16.6634 17.1092 16.7392 17.0777C16.8151 17.0463 16.8841 17.0003 16.9421 16.9422C17.0002 16.8841 17.0463 16.8152 17.0777 16.7393C17.1091 16.6634 17.1253 16.5821 17.1253 16.5C17.1253 16.4179 17.1091 16.3366 17.0777 16.2607C17.0463 16.1848 17.0002 16.1159 16.9421 16.0578ZM2.12493 7.75C2.12493 6.63748 2.45483 5.54994 3.07292 4.62491C3.691 3.69989 4.56951 2.97892 5.59734 2.55317C6.62517 2.12743 7.75617 2.01604 8.84732 2.23308C9.93846 2.45012 10.9407 2.98585 11.7274 3.77252C12.5141 4.55919 13.0498 5.56147 13.2669 6.65261C13.4839 7.74376 13.3725 8.87475 12.9468 9.90259C12.521 10.9304 11.8 11.8089 10.875 12.427C9.94999 13.0451 8.86245 13.375 7.74993 13.375C6.2586 13.3733 4.82882 12.7802 3.77429 11.7256C2.71975 10.6711 2.12659 9.24133 2.12493 7.75Z" fill="#3A3A3C"/>
</svg>
