<svg width="24" height="24" viewBox="0 0 24 24" fill="none" xmlns="http://www.w3.org/2000/svg">
<g clip-path="url(#clip0_98_523)">
<g clip-path="url(#clip1_98_523)">
<path d="M19.4996 3.00342H17.2496V2.25342C17.2496 2.05451 17.1705 1.86374 17.0299 1.72309C16.8892 1.58244 16.6985 1.50342 16.4996 1.50342C16.3006 1.50342 16.1099 1.58244 15.9692 1.72309C15.8286 1.86374 15.7496 2.05451 15.7496 2.25342V3.00342H8.24951V2.25342C8.24951 2.05451 8.17049 1.86374 8.02984 1.72309C7.88919 1.58244 7.69842 1.50342 7.49951 1.50342C7.3006 1.50342 7.10983 1.58244 6.96918 1.72309C6.82853 1.86374 6.74951 2.05451 6.74951 2.25342V3.00342H4.49951C4.10181 3.00382 3.7205 3.16198 3.43928 3.4432C3.15806 3.72442 2.9999 4.10572 2.99951 4.50342V19.5035C2.9999 19.9012 3.15806 20.2825 3.43928 20.5637C3.7205 20.8449 4.10181 21.0031 4.49951 21.0035H19.4996C19.8973 21.0031 20.2786 20.8449 20.5598 20.5637C20.841 20.2825 20.9992 19.9012 20.9996 19.5035V4.50342C20.9992 4.10572 20.841 3.72442 20.5598 3.4432C20.2786 3.16198 19.8973 3.00381 19.4996 3.00342ZM9.75006 17.6285C9.45469 17.6293 9.16209 17.5715 8.88918 17.4586C8.61626 17.3456 8.36843 17.1797 8.16002 16.9704C8.01928 16.8298 7.94015 16.6391 7.94004 16.4402C7.93992 16.2413 8.01883 16.0505 8.1594 15.9097C8.29997 15.769 8.49069 15.6899 8.6896 15.6897C8.88851 15.6896 9.07933 15.7685 9.22006 15.9091C9.30731 15.9962 9.41471 16.0605 9.53273 16.0963C9.65076 16.132 9.77578 16.1381 9.89672 16.114C10.0177 16.0899 10.1308 16.0363 10.2261 15.958C10.3214 15.8798 10.3959 15.7792 10.4431 15.6653C10.4903 15.5513 10.5086 15.4275 10.4965 15.3048C10.4844 15.182 10.4422 15.0642 10.3736 14.9617C10.3051 14.8592 10.2124 14.7751 10.1036 14.717C9.99479 14.6589 9.87338 14.6285 9.75006 14.6285C9.72672 14.6285 9.70291 14.6271 9.67961 14.6249C9.67215 14.6242 9.66487 14.6231 9.6575 14.6222C9.64189 14.6202 9.62633 14.618 9.61081 14.6151C9.60216 14.6134 9.5936 14.6116 9.58504 14.6097C9.57094 14.6065 9.55689 14.6028 9.54293 14.5988C9.53441 14.5964 9.5259 14.594 9.51752 14.5912C9.50342 14.5867 9.48946 14.5814 9.47559 14.5759C9.46804 14.5729 9.46039 14.5702 9.45298 14.567C9.43682 14.5601 9.42093 14.5522 9.40509 14.544C9.40052 14.5416 9.39571 14.5396 9.39118 14.5371C9.3714 14.5263 9.35199 14.5145 9.33295 14.5017C9.32654 14.4974 9.32059 14.4926 9.31432 14.4881C9.30333 14.4802 9.29221 14.4727 9.28154 14.4641C9.28017 14.463 9.27898 14.4618 9.27761 14.4606C9.2663 14.4514 9.25568 14.4415 9.24492 14.4317C9.23709 14.4245 9.22885 14.4177 9.22139 14.4103C9.21416 14.4031 9.20761 14.3953 9.20065 14.3878C9.1099 14.2899 9.04679 14.1696 9.01778 14.0393C9.01727 14.0369 9.01645 14.0346 9.01595 14.0322C9.01334 14.0195 9.01178 14.0065 9.00981 13.9937C9.00803 13.982 9.00574 13.9705 9.0045 13.9588C9.00345 13.9491 9.00331 13.9393 9.00263 13.9295C9.00157 13.9142 9.00043 13.8988 9.00034 13.8834C9.00029 13.8817 9.00006 13.8801 9.00006 13.8785C9.00006 13.8707 9.00098 13.8631 9.00125 13.8554C9.00171 13.8398 9.00217 13.8243 9.00358 13.8088C9.00455 13.7983 9.00619 13.7881 9.00762 13.7778C9.00949 13.7638 9.01132 13.7499 9.01398 13.736C9.01614 13.7248 9.01892 13.714 9.02153 13.703C9.0246 13.6902 9.02762 13.6775 9.03138 13.6648C9.03476 13.6534 9.03875 13.6424 9.04264 13.6312C9.0468 13.6194 9.05088 13.6075 9.05564 13.5957C9.06031 13.5843 9.06562 13.5732 9.07083 13.562C9.07596 13.551 9.0809 13.5401 9.08658 13.5293C9.09272 13.5176 9.09958 13.5064 9.10631 13.4951C9.11213 13.4854 9.11771 13.4755 9.12398 13.466C9.13195 13.454 9.1406 13.4425 9.1492 13.431C9.15442 13.424 9.15891 13.4167 9.1644 13.4099L9.68959 12.7535H8.62506C8.42615 12.7535 8.23538 12.6744 8.09473 12.5338C7.95408 12.3931 7.87506 12.2024 7.87506 12.0035C7.87506 11.8045 7.95408 11.6138 8.09473 11.4731C8.23538 11.3325 8.42615 11.2535 8.62506 11.2535H11.2501C11.3914 11.2535 11.5298 11.2934 11.6494 11.3686C11.769 11.4438 11.8649 11.5513 11.9261 11.6786C11.9873 11.8059 12.0113 11.948 11.9953 12.0883C11.9793 12.2287 11.924 12.3617 11.8358 12.472L11.0043 13.5114C11.4047 13.7801 11.7081 14.1704 11.8698 14.6247C12.0316 15.079 12.043 15.5733 11.9025 16.0346C11.762 16.4959 11.4769 16.8998 11.0894 17.1868C10.7018 17.4738 10.2323 17.6286 9.75006 17.6285ZM15.7501 16.8785C15.7501 17.0774 15.6711 17.2681 15.5304 17.4088C15.3898 17.5494 15.199 17.6285 15.0001 17.6285C14.8012 17.6285 14.6104 17.5494 14.4698 17.4088C14.3291 17.2681 14.2501 17.0774 14.2501 16.8785V13.5035L13.9501 13.7285C13.7909 13.8478 13.5909 13.8991 13.394 13.8709C13.1971 13.8428 13.0194 13.7376 12.9001 13.5784C12.7807 13.4193 12.7295 13.2193 12.7576 13.0224C12.7858 12.8254 12.891 12.6478 13.0501 12.5284L14.5501 11.4034C14.6616 11.3199 14.794 11.269 14.9328 11.2565C15.0715 11.244 15.2109 11.2704 15.3355 11.3327C15.4601 11.395 15.5649 11.4907 15.6381 11.6092C15.7113 11.7277 15.7501 11.8642 15.7501 12.0035V16.8785ZM19.4996 7.50342H4.49951V4.50342H6.74951V5.25342C6.74951 5.45233 6.82853 5.6431 6.96918 5.78375C7.10983 5.9244 7.3006 6.00342 7.49951 6.00342C7.69842 6.00342 7.88919 5.9244 8.02984 5.78375C8.17049 5.6431 8.24951 5.45233 8.24951 5.25342V4.50342H15.7496V5.25342C15.7496 5.45233 15.8286 5.6431 15.9692 5.78375C16.1099 5.9244 16.3006 6.00342 16.4996 6.00342C16.6985 6.00342 16.8892 5.9244 17.0299 5.78375C17.1705 5.6431 17.2496 5.45233 17.2496 5.25342V4.50342H19.4996V7.50342Z" fill="white"/>
</g>
</g>
<defs>
<clipPath id="clip0_98_523">
<rect width="24" height="24" fill="white"/>
</clipPath>
<clipPath id="clip1_98_523">
<rect width="24" height="24" fill="white"/>
</clipPath>
</defs>
</svg>
